<svg width="13" height="20" viewBox="0 0 13 20" fill="none" xmlns="http://www.w3.org/2000/svg">
<path d="M0.624 11.3537L10.1261 19.347C11.2441 20.2903 13 19.5237 13 18.092L13 2.10532C13.0003 1.78492 12.9045 1.47122 12.7242 1.2018C12.5438 0.932384 12.2865 0.718666 11.9831 0.58624C11.6796 0.453813 11.3429 0.408292 11.0133 0.455129C10.6836 0.501965 10.375 0.639173 10.1244 0.850322L0.625734 8.84365C0.439557 9.00009 0.290341 9.19301 0.188103 9.40947C0.0858641 9.62593 0.0329685 9.86092 0.0329685 10.0987C0.0329685 10.3364 0.085864 10.5714 0.188103 10.7878C0.290341 11.0043 0.439557 11.1972 0.625734 11.3537L0.624 11.3537Z" fill="#3B3B3B"/>
</svg>
