<svg width="75" height="70" viewBox="0 0 75 70" fill="none" xmlns="http://www.w3.org/2000/svg">
<path d="M6.12505 35C6.12426 29.931 7.45788 24.9511 9.99187 20.5609C12.5259 16.1707 16.1709 12.525 20.5606 9.99012C24.9503 7.45527 29.9299 6.12067 34.9989 6.12047C40.0679 6.12028 45.0477 7.45449 49.4376 9.98899C50.0401 10.3316 50.7538 10.4219 51.4227 10.2403C52.0917 10.0587 52.6617 9.61987 53.0083 9.01956C53.3549 8.41926 53.45 7.70623 53.2728 7.03608C53.0956 6.36593 52.6605 5.79306 52.0626 5.44249C45.5571 1.68654 37.994 0.182101 30.5464 1.16248C23.0987 2.14286 16.1827 5.55327 10.8708 10.8648C5.55892 16.1764 2.14806 23.0922 1.16721 30.5398C0.186349 37.9873 1.69031 45.5505 5.44584 52.0562C9.20137 58.5619 14.9986 63.6467 21.9384 66.5219C28.8783 69.3972 36.573 69.9022 43.8291 67.9587C51.0852 66.0152 57.4973 61.7317 62.0709 55.7726C66.6445 49.8136 69.1241 42.5119 69.1251 35C69.1251 34.3038 68.8485 33.6361 68.3562 33.1438C67.8639 32.6516 67.1962 32.375 66.5001 32.375C65.8039 32.375 65.1362 32.6516 64.6439 33.1438C64.1516 33.6361 63.8751 34.3038 63.8751 35C63.8751 42.6581 60.8329 50.0026 55.4178 55.4177C50.0027 60.8328 42.6582 63.875 35.0001 63.875C27.3419 63.875 19.9975 60.8328 14.5823 55.4177C9.16723 50.0026 6.12505 42.6581 6.12505 35Z" fill="#FEB931"/>
<path d="M73.6094 10.6085C73.8534 10.3644 74.047 10.0747 74.1791 9.7558C74.3112 9.43692 74.3792 9.09514 74.3792 8.74999C74.3792 8.40483 74.3112 8.06306 74.1791 7.74418C74.047 7.42529 73.8534 7.13555 73.6094 6.89149C73.3653 6.64743 73.0756 6.45383 72.7567 6.32174C72.4378 6.18966 72.096 6.12167 71.7509 6.12167C71.4057 6.12167 71.0639 6.18966 70.7451 6.32174C70.4262 6.45383 70.1364 6.64743 69.8924 6.89149L35.0009 41.7882L21.1094 27.8915C20.8653 27.6474 20.5756 27.4538 20.2567 27.3217C19.9378 27.1897 19.596 27.1217 19.2509 27.1217C18.9057 27.1217 18.5639 27.1897 18.2451 27.3217C17.9262 27.4538 17.6364 27.6474 17.3924 27.8915C17.1483 28.1355 16.9547 28.4253 16.8226 28.7442C16.6905 29.0631 16.6226 29.4048 16.6226 29.75C16.6226 30.0951 16.6905 30.4369 16.8226 30.7558C16.9547 31.0747 17.1483 31.3644 17.3924 31.6085L33.1424 47.3585C33.3862 47.6029 33.6759 47.7969 33.9948 47.9292C34.3137 48.0616 34.6556 48.1297 35.0009 48.1297C35.3462 48.1297 35.688 48.0616 36.007 47.9292C36.3259 47.7969 36.6155 47.6029 36.8594 47.3585L73.6094 10.6085Z" fill="#FEB931"/>
</svg>
