<svg width="25" height="24" viewBox="0 0 25 24" fill="none" xmlns="http://www.w3.org/2000/svg">
<g clip-path="url(#clip0)">
<path d="M25 12.0733C25 5.40429 19.4031 -0.00170898 12.5 -0.00170898C5.5937 -0.000208984 -0.00317383 5.40429 -0.00317383 12.0748C-0.00317383 18.1003 4.5687 23.0953 10.5437 24.0013V15.5638H7.37183V12.0748H10.5468V9.41229C10.5468 6.38679 12.414 4.71579 15.2687 4.71579C16.6375 4.71579 18.0671 4.95129 18.0671 4.95129V7.92129H16.4906C14.939 7.92129 14.4546 8.85279 14.4546 9.80829V12.0733H17.9203L17.3671 15.5623H14.4531V23.9998C20.4281 23.0938 25 18.0988 25 12.0733Z" fill="#747474"/>
</g>
<defs>
<clipPath id="clip0">
<rect width="25" height="24" fill="white"/>
</clipPath>
</defs>
</svg>
