<svg width="249" height="177" viewBox="0 0 249 177" fill="none" xmlns="http://www.w3.org/2000/svg">
<g clip-path="url(#clip0)">
<path d="M2.10033 -0.379883C1.54202 -0.377782 1.00734 -0.152979 0.613591 0.24521C0.219837 0.643398 -0.000829633 1.18245 2.63022e-06 1.74411V173.802C-0.000878732 174.364 0.219774 174.903 0.613538 175.301C1.0073 175.699 1.54201 175.924 2.10033 175.926H246.277C246.835 175.924 247.37 175.699 247.764 175.301C248.157 174.903 248.378 174.364 248.377 173.802V1.74411C248.378 1.18248 248.157 0.643431 247.764 0.245236C247.37 -0.152958 246.835 -0.377772 246.277 -0.379883H2.10033Z" fill="#F0ECE9"/>
<path d="M1.22187 100.74C8.6704 100.718 15.7024 103.381 21.8354 107.522C28.2729 111.869 33.7137 117.628 38.4931 123.726C43.7746 130.466 48.3 137.758 53.1579 144.802C57.6443 151.308 62.4515 157.632 68.2336 163.037C73.7039 168.151 80.0395 172.451 87.1847 174.783C88.0552 175.067 88.9354 175.318 89.823 175.542C90.8233 175.794 91.25 174.24 90.2489 173.988C82.9113 172.135 76.3508 168.123 70.7108 163.122C64.8257 157.904 59.9328 151.711 55.4346 145.275C50.5371 138.268 46.0305 130.983 40.8521 124.176C36.0609 117.877 30.6728 111.956 24.2728 107.276C18.3339 102.933 11.4546 99.8398 4.0799 99.2361C3.12894 99.1582 2.17586 99.1253 1.22184 99.1281C1.01417 99.1353 0.817421 99.2234 0.673056 99.3738C0.528692 99.5241 0.447998 99.725 0.447998 99.934C0.447998 100.143 0.528692 100.344 0.673056 100.494C0.817421 100.645 1.01417 100.733 1.22184 100.74L1.22187 100.74Z" fill="#282828"/>
<path d="M2.05443 175.157C15.157 161.824 33.069 155.522 50.8566 151.433C69.4606 147.157 88.6543 144.862 106.331 137.233C114.771 133.689 122.519 128.664 129.214 122.394C135.464 116.388 140.649 109.352 144.545 101.589C152.496 85.8531 154.969 67.8884 151.567 50.5708C147.969 32.9649 139.048 16.9088 126.026 4.60181C124.439 3.10126 122.797 1.66464 121.098 0.291964C120.302 -0.352791 119.161 0.780765 119.965 1.43174C133.805 12.6585 143.827 27.9417 148.64 45.1596C153.341 62.1445 152.125 80.2365 145.191 96.4294C141.827 104.295 137.171 111.536 131.419 117.848C125.316 124.432 118.059 129.827 110.011 133.763C92.8646 142.279 73.6727 144.915 55.1602 148.837C37.7052 152.534 19.9001 157.809 5.90544 169.427C4.1682 170.871 2.50475 172.403 0.921444 174.017C0.195748 174.755 1.32807 175.896 2.05443 175.157Z" fill="#282828"/>
<path d="M1.0715 74.2253C21.1802 68.7539 42.4593 69.487 62.1488 76.3296C67.8687 78.3031 73.7357 80.5967 78.5209 84.4122C82.6375 87.6947 86.2523 92.6636 85.2239 98.2427C84.2759 103.386 79.5735 107.448 74.5124 108.191C69.2926 108.958 64.5366 105.762 62.1423 101.234C60.92 98.9884 60.3617 96.4379 60.5332 93.8833C60.7046 91.3288 61.5987 88.8769 63.11 86.8168C66.1359 82.7168 71.1667 80.3754 76.1106 79.7263C81.7621 78.9842 87.3205 80.66 92.2087 83.4621C103.257 89.795 110.312 100.836 119.59 109.252C124.036 113.413 129.258 116.648 134.952 118.77C140.46 120.685 146.27 121.569 152.095 121.378C164.304 121.065 176.011 116.628 185.986 109.668C195.991 102.687 204.255 93.5207 211.491 83.7381C215.36 78.5072 218.723 72.8866 222.772 67.7938C226.757 62.7807 231.688 58.3241 237.994 56.6459C240.865 55.8473 243.894 55.8305 246.773 56.5971C246.975 56.6456 247.188 56.6133 247.367 56.5069C247.546 56.4006 247.677 56.2284 247.732 56.0269C247.787 55.8253 247.762 55.61 247.663 55.4265C247.563 55.2429 247.397 55.1053 247.199 55.0428C241.068 53.3609 234.622 55.3295 229.539 58.9191C224.102 62.7586 220.206 68.3238 216.51 73.7741C209.126 84.6632 201.173 95.2159 191.079 103.734C181.001 112.239 168.873 118.334 155.651 119.555C149.327 120.196 142.938 119.57 136.856 117.712C130.497 115.703 124.984 112.074 120.11 107.55C110.534 98.6612 103.086 86.9941 91.1009 81.0443C86.0493 78.5366 80.521 77.3334 74.923 78.2883C69.9939 79.129 65.1458 81.574 62.0383 85.5907C60.4641 87.61 59.4371 90.0053 59.0574 92.5429C58.6777 95.0806 58.9582 97.6739 59.8717 100.07C61.6421 104.746 65.5924 108.785 70.6091 109.706C75.6728 110.635 80.9632 108.286 84.1251 104.288C85.708 102.281 86.6693 99.851 86.8894 97.2992C87.1094 94.7474 86.5785 92.1868 85.3627 89.9363C82.7618 84.8786 77.6876 81.3817 72.7451 78.9141C66.5358 75.9154 60.0183 73.611 53.3095 72.0423C39.5422 68.665 25.2415 68.0985 11.2528 70.3765C7.68123 70.9628 4.14104 71.7287 0.645528 72.671C0.4472 72.7335 0.280756 72.8711 0.181288 73.0547C0.0818199 73.2383 0.0570955 73.4535 0.112334 73.6551C0.167572 73.8567 0.298459 74.0288 0.47739 74.1352C0.656321 74.2415 0.869317 74.2738 1.07148 74.2253H1.0715Z" fill="#282828"/>
<path d="M168.243 175.864C173.912 168.206 179.708 160.083 182.155 150.714C183.373 146.241 183.552 141.547 182.677 136.994C181.831 133.024 180.182 129.272 177.833 125.971C173.015 119.086 165.912 113.97 158.353 110.516C148.992 106.238 138.898 104.045 129.127 100.961C120.122 98.1176 110.888 94.4078 104.161 87.4978C97.8047 80.969 94.2032 71.1419 97.7484 62.3029C100.965 54.2829 108.804 48.9643 116.63 46.1565C126.224 42.714 136.5 42.0943 146.277 39.3658C154.451 37.0848 162.816 33.1954 167.877 26.0541C172.166 20.0021 173.542 11.2747 170.114 4.51052C169.278 2.87077 168.153 1.39745 166.793 0.162334C166.031 -0.532849 164.894 0.603719 165.66 1.30211C171.441 6.57271 171.51 15.5902 168.253 22.2654C164.429 30.1031 156.171 34.5677 148.223 37.1036C138.763 40.1219 128.752 40.7662 119.246 43.606C111.121 46.0332 103.174 50.385 98.3926 57.6584C96.071 61.1417 94.7978 65.225 94.7258 69.4182C94.7508 73.9053 95.9409 78.308 98.1782 82.1898C102.698 90.2627 110.754 95.4849 119.045 99.0088C136.476 106.418 157.155 107.549 171.516 121.132C177.683 126.966 181.871 134.713 181.629 143.392C181.362 152.965 176.275 161.674 170.985 169.323C169.646 171.258 168.259 173.16 166.859 175.051C166.243 175.883 167.633 176.688 168.243 175.864V175.864Z" fill="#282828"/>
<path d="M37.3803 1.77425C39.5856 3.39114 41.3704 5.51959 42.5832 7.9788C43.7959 10.438 44.4007 13.1553 44.3462 15.9C44.2594 18.6788 43.4907 21.393 42.1086 23.8005C40.7264 26.2081 38.7738 28.2344 36.4246 29.6988C31.9748 32.341 25.7207 32.6735 22.1774 28.3558C20.7117 26.6044 19.981 24.3479 20.1401 22.064C20.2662 20.9618 20.6543 19.9064 21.2717 18.987C21.889 18.0677 22.7174 17.3114 23.6868 16.7823C28.1817 14.2023 33.569 15.7213 37.7229 18.1934C40.294 19.7236 42.6466 21.585 45.105 23.2849C47.4537 24.923 49.9618 26.3167 52.5906 27.4446C63.0562 31.8917 75.3361 31.9446 85.6528 27.0288C90.3273 24.7773 94.5137 21.6194 97.972 17.7363C101.43 13.8531 104.092 9.3212 105.805 4.40056C106.218 3.18401 106.567 1.94609 106.849 0.692106C107.077 -0.317912 105.532 -0.74914 105.304 0.263604C102.896 10.9214 95.5406 20.1373 85.9027 25.1119C75.3975 30.5342 62.4271 30.3825 51.8089 25.3404C49.0869 23.9914 46.4922 22.3966 44.0569 20.5756C41.5522 18.7698 39.0544 16.9051 36.2545 15.5795C31.8532 13.4959 26.0924 12.9095 21.965 15.9913C20.9969 16.6997 20.1904 17.6079 19.5993 18.6552C19.0083 19.7025 18.6464 20.8647 18.5378 22.064C18.3819 24.5197 19.1099 26.9497 20.5887 28.9097C24.0217 33.5684 30.2016 34.2281 35.2707 32.0773C40.6021 29.8151 44.4431 24.693 45.5831 19.0326C46.2661 15.5377 45.9317 11.9189 44.6201 8.61056C43.3084 5.30225 41.0754 2.44516 38.189 0.382428C37.3505 -0.224135 36.5497 1.17341 37.3803 1.77425H37.3803Z" fill="#282828"/>
<path d="M207.304 175.554C209.003 167.786 212.393 160.492 217.23 154.199C222.047 147.888 228.136 142.672 235.097 138.894C239.007 136.778 243.17 135.177 247.486 134.13C248.488 133.887 248.064 132.332 247.06 132.576C239.182 134.532 231.831 138.217 225.535 143.367C219.211 148.485 214.037 154.891 210.351 162.165C208.275 166.27 206.732 170.626 205.759 175.126C205.542 176.137 207.087 176.57 207.304 175.554H207.304Z" fill="#282828"/>
<path d="M198.797 0.401385C195.38 0.435987 192.499 2.81475 191.1 5.84771C189.512 9.28961 189.947 13.0773 191.649 16.3935C195.619 24.1298 204.289 26.8715 210.531 32.2204C213.428 34.702 215.952 37.8598 216.617 41.724C217.264 45.4906 215.927 49.3723 213.736 52.4033C211.344 55.7128 207.737 57.9882 203.979 59.4232C200.115 60.9016 196.033 61.7248 191.9 61.8594C187.908 61.9732 183.687 61.2715 180.381 58.8758C179.009 57.8891 177.855 56.6264 176.994 55.1679C176.132 53.7093 175.58 52.0865 175.375 50.4024C175.205 48.8796 175.462 47.3395 176.116 45.9555C176.77 44.5715 177.795 43.3985 179.075 42.5687C181.658 41.0327 184.721 40.5327 187.653 41.1683C194.96 42.6208 198.744 49.9141 200.36 56.5999C202.417 65.1134 201.6 74.1641 204.764 82.4366C207.462 89.4368 212.373 95.3505 218.741 99.2665C226.039 103.733 233.897 105.178 242.179 102.997C244.289 102.43 246.339 101.662 248.304 100.705C249.234 100.257 248.422 98.8666 247.495 99.3127C239.262 103.277 230.839 103.404 222.553 99.4971C215.688 96.2202 210.185 90.6198 207.008 83.6751C203.259 75.4672 204.005 66.2511 202.22 57.5813C200.784 50.603 197.295 42.8244 190.168 40.2005C184.432 38.089 176.746 39.728 174.358 45.9412C173.11 49.189 173.832 52.9027 175.547 55.8348C177.481 59.0468 180.535 61.4184 184.114 62.4866C188.134 63.7717 192.471 63.664 196.594 63.0099C200.743 62.4268 204.755 61.1009 208.439 59.0952C211.969 57.1672 214.839 54.2146 216.677 50.6219C218.389 47.1104 218.94 43.0235 217.638 39.2813C214.762 31.0134 206.062 27.5995 199.568 22.8189C196.368 20.4635 193.364 17.3695 192.172 13.4708C191.613 11.8009 191.537 10.0059 191.952 8.29421C192.367 6.58251 193.257 5.02436 194.517 3.80069C195.67 2.68544 197.197 2.04736 198.797 2.01325C199.004 2.00601 199.201 1.91792 199.345 1.76757C199.49 1.61722 199.57 1.41635 199.57 1.20731C199.57 0.998271 199.49 0.797403 199.345 0.64705C199.201 0.496697 199.004 0.408613 198.797 0.401367L198.797 0.401385Z" fill="#282828"/>
<path d="M166.706 147.637C183.815 147.637 197.684 133.685 197.684 116.474C197.684 99.2628 183.815 85.3105 166.706 85.3105C149.597 85.3105 135.728 99.2628 135.728 116.474C135.728 133.685 149.597 147.637 166.706 147.637Z" fill="#1A1A1A"/>
<path d="M174.718 46.6253C181.502 46.6253 187.002 41.0925 187.002 34.2675C187.002 27.4425 181.502 21.9097 174.718 21.9097C167.933 21.9097 162.433 27.4425 162.433 34.2675C162.433 41.0925 167.933 46.6253 174.718 46.6253Z" fill="#282828"/>
<path d="M24.6358 55.7596C31.4203 55.7596 36.9201 50.2268 36.9201 43.4018C36.9201 36.5767 31.4203 31.0439 24.6358 31.0439C17.8514 31.0439 12.3516 36.5767 12.3516 43.4018C12.3516 50.2268 17.8514 55.7596 24.6358 55.7596Z" fill="#282828"/>
</g>
<defs>
<clipPath id="clip0">
<rect width="248.957" height="176.321" fill="white"/>
</clipPath>
</defs>
</svg>
