<svg width="23" height="22" viewBox="0 0 23 22" fill="none" xmlns="http://www.w3.org/2000/svg">
<path d="M11.5 0C8.37919 0 7.98675 0.01375 6.76056 0.066C5.53438 0.121 4.69919 0.30525 3.9675 0.5775C3.20001 0.853626 2.50483 1.28676 1.93056 1.84663C1.34561 2.39621 0.892842 3.06108 0.60375 3.795C0.319125 4.4935 0.125062 5.29375 0.069 6.4625C0.014375 7.63812 0 8.01213 0 11.0014C0 13.9879 0.014375 14.3619 0.069 15.5347C0.1265 16.7063 0.319125 17.5051 0.60375 18.205C0.898438 18.9282 1.29088 19.5415 1.93056 20.1534C2.56881 20.7652 3.20994 21.142 3.96606 21.4225C4.69919 21.6947 5.53294 21.8804 6.75769 21.934C7.98531 21.9862 8.37631 22 11.5 22C14.6237 22 15.0133 21.9862 16.2409 21.934C17.4642 21.879 18.3022 21.6947 19.0339 21.4225C19.8009 21.1462 20.4956 20.7131 21.0694 20.1534C21.7091 19.5415 22.1016 18.9282 22.3962 18.205C22.6794 17.5051 22.8735 16.7063 22.931 15.5347C22.9856 14.3619 23 13.9879 23 11C23 8.01213 22.9856 7.63813 22.931 6.46388C22.8735 5.29375 22.6794 4.4935 22.3962 3.795C22.1072 3.06106 21.6544 2.39618 21.0694 1.84663C20.4953 1.28655 19.8001 0.853387 19.0325 0.5775C18.2994 0.30525 17.4627 0.119625 16.2394 0.066C15.0118 0.01375 14.6223 0 11.4971 0H11.5014H11.5ZM10.4693 1.98275H11.5014C14.5719 1.98275 14.9356 1.99238 16.1474 2.046C17.2687 2.09413 17.8782 2.27425 18.2836 2.42412C18.8197 2.6235 19.2036 2.86275 19.6061 3.24775C20.0086 3.63275 20.2572 3.9985 20.4657 4.51275C20.6238 4.89913 20.8107 5.48213 20.861 6.55463C20.9171 7.71375 20.9286 8.06163 20.9286 10.9973C20.9286 13.9329 20.9171 14.2821 20.861 15.4412C20.8107 16.5138 20.6224 17.0954 20.4657 17.4831C20.2813 17.9607 19.987 18.3926 19.6046 18.7467C19.2021 19.1318 18.8197 19.3696 18.2821 19.569C17.8796 19.7203 17.2701 19.899 16.1474 19.9485C14.9356 20.0007 14.5719 20.0131 11.5014 20.0131C8.43094 20.0131 8.06581 20.0007 6.854 19.9485C5.73275 19.899 5.12469 19.7203 4.71931 19.569C4.21978 19.3929 3.76787 19.1119 3.39681 18.7467C3.01408 18.392 2.71935 17.9598 2.53431 17.4818C2.37762 17.0954 2.18931 16.5124 2.139 15.4399C2.08438 14.2808 2.07288 13.9329 2.07288 10.9945C2.07288 8.0575 2.08438 7.711 2.139 6.55187C2.19075 5.47937 2.37762 4.89638 2.53575 4.50863C2.74419 3.99575 2.99431 3.62862 3.39681 3.24362C3.79931 2.85862 4.18169 2.62075 4.71931 2.42138C5.12469 2.27013 5.73275 2.09138 6.854 2.04188C7.91488 1.99513 8.326 1.98138 10.4693 1.98V1.98275ZM17.6396 3.80875C17.4583 3.80875 17.2789 3.84289 17.1115 3.90923C16.944 3.97557 16.7919 4.0728 16.6638 4.19537C16.5356 4.31794 16.434 4.46346 16.3646 4.62361C16.2953 4.78376 16.2596 4.95541 16.2596 5.12875C16.2596 5.30209 16.2953 5.47374 16.3646 5.63389C16.434 5.79404 16.5356 5.93956 16.6638 6.06213C16.7919 6.1847 16.944 6.28193 17.1115 6.34827C17.2789 6.41461 17.4583 6.44875 17.6396 6.44875C18.0056 6.44875 18.3566 6.30968 18.6154 6.06213C18.8742 5.81458 19.0196 5.47884 19.0196 5.12875C19.0196 4.77866 18.8742 4.44292 18.6154 4.19537C18.3566 3.94782 18.0056 3.80875 17.6396 3.80875ZM11.5014 5.3515C10.7181 5.33981 9.94016 5.47729 9.21291 5.75594C8.48565 6.0346 7.82362 6.44885 7.26534 6.97458C6.70707 7.50032 6.26371 8.12703 5.96108 8.81823C5.65846 9.50944 5.50261 10.2513 5.50261 11.0007C5.50261 11.7501 5.65846 12.4919 5.96108 13.1831C6.26371 13.8743 6.70707 14.5011 7.26534 15.0268C7.82362 15.5525 8.48565 15.9668 9.21291 16.2454C9.94016 16.5241 10.7181 16.6616 11.5014 16.6499C13.0518 16.6267 14.5306 16.0214 15.6184 14.9645C16.7063 13.9076 17.316 12.4839 17.316 11.0007C17.316 9.51751 16.7063 8.09382 15.6184 7.03691C14.5306 5.97999 13.0518 5.37464 11.5014 5.3515ZM11.5014 7.33288C12.5182 7.33288 13.4934 7.71923 14.2124 8.40695C14.9313 9.09467 15.3352 10.0274 15.3352 11C15.3352 11.9726 14.9313 12.9053 14.2124 13.593C13.4934 14.2808 12.5182 14.6671 11.5014 14.6671C10.4846 14.6671 9.5095 14.2808 8.79052 13.593C8.07154 12.9053 7.66762 11.9726 7.66762 11C7.66762 10.0274 8.07154 9.09467 8.79052 8.40695C9.5095 7.71923 10.4846 7.33288 11.5014 7.33288Z" fill="#747474"/>
</svg>
