<svg width="128" height="509" viewBox="0 0 128 509" fill="none" xmlns="http://www.w3.org/2000/svg">
<path d="M63.9873 508.011C77.2021 508.011 87.9148 506.228 87.9148 504.028C87.9148 501.828 77.2021 500.045 63.9873 500.045C50.7725 500.045 40.0598 501.828 40.0598 504.028C40.0598 506.228 50.7725 508.011 63.9873 508.011Z" fill="#3B3B3B"/>
<path d="M91.9026 123.627H89.9087V165.451H91.9026V123.627Z" fill="#3B3B3B"/>
<path d="M69.6742 96.3093H58.5503V502.333H69.6742V96.3093Z" fill="#3B3B3B"/>
<path d="M118.759 129.104H9.21553C8.01392 129.104 6.82605 128.849 5.73073 128.355C4.63541 127.862 3.65764 127.141 2.86241 126.241C2.06718 125.341 1.47267 124.283 1.11824 123.136C0.763811 121.989 0.657599 120.78 0.806684 119.59L14.7644 8.0582C15.0233 6.01221 16.02 4.13065 17.5679 2.76582C19.1157 1.40098 21.1086 0.646472 23.1732 0.643555H104.801C106.866 0.646472 108.859 1.40098 110.407 2.76582C111.955 4.13065 112.951 6.01221 113.21 8.0582L127.168 119.59C127.317 120.78 127.211 121.989 126.856 123.136C126.502 124.283 125.907 125.341 125.112 126.241C124.317 127.141 123.339 127.862 122.244 128.355C121.149 128.849 119.961 129.104 118.759 129.104Z" fill="#3B3B3B"/>
<path d="M90.9059 172.422C94.7602 172.422 97.8848 169.301 97.8848 165.451C97.8848 161.601 94.7602 158.48 90.9059 158.48C87.0516 158.48 83.927 161.601 83.927 165.451C83.927 169.301 87.0516 172.422 90.9059 172.422Z" fill="#3B3B3B"/>
</svg>
