<svg width="63" height="58" viewBox="0 0 63 58" fill="none" xmlns="http://www.w3.org/2000/svg">
<path d="M54.9576 52.8564C54.1979 52.8564 53.4561 52.625 52.8301 52.1927C52.2041 51.7604 51.7234 51.1476 51.4515 50.4353L39.0258 17.8206C38.4717 16.3675 38.4567 14.7627 38.9834 13.2994L43.7686 0H39.9342L17.8787 58H22.9044L34.7387 25.1011L42.9451 48.0738C43.1374 48.6137 43.1976 49.192 43.1208 49.7602C43.044 50.3283 42.8323 50.8696 42.5036 51.3384C42.1749 51.8073 41.7388 52.1899 41.232 52.454C40.7253 52.7182 40.1627 52.8562 39.5918 52.8564H34.4161V58H62.9971V52.8564H54.9576Z" fill="#1A1A1A"/>
<path d="M13.7753 58L34.6395 0H30.8051L8.75244 58H13.7753Z" fill="#1A1A1A"/>
<path d="M5.02291 58L25.8899 0H22.0555L0 58H5.02291Z" fill="#1A1A1A"/>
<path d="M34.6398 46.974C36.7731 46.974 38.5025 45.2374 38.5025 43.095C38.5025 40.9527 36.7731 39.2161 34.6398 39.2161C32.5065 39.2161 30.7771 40.9527 30.7771 43.095C30.7771 45.2374 32.5065 46.974 34.6398 46.974Z" fill="#1A1A1A"/>
</svg>
