<svg width="46" height="46" viewBox="0 0 46 46" fill="none" xmlns="http://www.w3.org/2000/svg">
<path d="M16.904 31.665C18.9873 31.665 20.8985 30.9283 22.3946 29.7031C23.9077 30.9621 25.8499 31.7243 27.9671 31.7243C32.7803 31.7243 36.6929 27.8089 36.6929 22.9986C36.6929 18.1855 32.7803 14.2728 27.9671 14.2728C25.8443 14.2728 23.8993 15.035 22.3862 16.2997C20.89 15.0774 18.9817 14.3434 16.904 14.3434C12.1191 14.3434 8.24316 18.2222 8.24316 23.0014C8.24316 27.7863 12.1191 31.665 16.904 31.665ZM34.8213 22.9986C34.8213 26.7757 31.7442 29.8499 27.9671 29.8499C26.358 29.8499 24.8788 29.2909 23.7045 28.3565C24.8647 26.8858 25.5648 25.0255 25.5648 23.0042C25.5648 20.9802 24.8619 19.1227 23.6988 17.6463C24.8704 16.709 26.3524 16.1445 27.9671 16.1445C31.7442 16.1445 34.8213 19.2215 34.8213 22.9986Z" fill="#757575"/>
</svg>
