<svg width="160" height="160" viewBox="0 0 160 160" fill="none" xmlns="http://www.w3.org/2000/svg">
<circle cx="80" cy="80" r="80" fill="#F0ECE9"/>
<path d="M75.5376 120.528V78.864L79.3776 74.352V36.816H87.4416V77.04L83.6016 82.896V120.528H75.5376ZM100.114 60.432C97.4256 58.96 94.6736 57.744 91.8576 56.784C89.1056 55.824 86.5136 55.344 84.0816 55.344C81.0736 55.344 78.7056 55.952 76.9776 57.168C75.2496 58.384 74.3856 60.208 74.3856 62.64C74.3856 64.304 75.0256 65.808 76.3056 67.152C77.6496 68.432 79.3456 69.584 81.3936 70.608C83.5056 71.632 85.6816 72.56 87.9216 73.392C89.9696 74.16 91.9856 75.088 93.9696 76.176C96.0176 77.2 97.8416 78.512 99.4416 80.112C101.042 81.648 102.322 83.6 103.282 85.968C104.242 88.272 104.722 91.12 104.722 94.512C104.722 98.096 103.794 101.424 101.938 104.496C100.082 107.568 97.3616 110.064 93.7776 111.984C90.1936 113.84 85.7776 114.768 80.5296 114.768C77.8416 114.768 75.0896 114.512 72.2736 114C69.5216 113.424 66.8016 112.592 64.1136 111.504C61.4256 110.352 58.8336 108.912 56.3376 107.184L62.4816 96.336C64.1456 97.552 65.9376 98.64 67.8576 99.6C69.8416 100.496 71.8256 101.2 73.8096 101.712C75.7936 102.224 77.6176 102.48 79.2816 102.48C80.9456 102.48 82.6096 102.256 84.2736 101.808C86.0016 101.296 87.4096 100.464 88.4976 99.312C89.6496 98.16 90.2256 96.56 90.2256 94.512C90.2256 93.104 89.7456 91.824 88.7856 90.672C87.8896 89.52 86.6416 88.464 85.0416 87.504C83.5056 86.544 81.8096 85.712 79.9536 85.008C77.7776 84.176 75.5376 83.216 73.2336 82.128C70.9296 81.04 68.7536 79.728 66.7056 78.192C64.7216 76.592 63.0896 74.64 61.8096 72.336C60.5936 69.968 59.9856 67.088 59.9856 63.696C59.9856 59.6 60.8816 56.048 62.6736 53.04C64.5296 50.032 67.1216 47.664 70.4496 45.936C73.7776 44.144 77.6176 43.152 81.9696 42.96C87.6656 42.96 92.2736 43.632 95.7936 44.976C99.3776 46.32 102.578 47.92 105.394 49.776L100.114 60.432Z" fill="#3B3B3B"/>
</svg>
