<svg width="46" height="46" viewBox="0 0 46 46" fill="none" xmlns="http://www.w3.org/2000/svg">
<g clip-path="url(#clip0)">
<path d="M27.9664 15.2354C26.9634 13.0185 24.7439 11.5627 22.2792 11.5627H14.4707L11.5 29.3863H16.4163L15.8227 32.9511H22.531L23.4222 27.604H26.8198C29.885 27.604 32.4734 25.4117 32.9747 22.3907C33.263 20.6662 32.8353 18.9532 31.7713 17.568C30.8314 16.3448 29.4661 15.5165 27.9664 15.2354V15.2354ZM16.712 27.604H13.6042L15.9805 13.3451H22.2792C24.1726 13.3451 25.8653 14.5465 26.491 16.335C26.736 17.0369 26.8002 17.7958 26.676 18.5331C26.3181 20.6908 24.4689 22.2569 22.2792 22.2569H17.6032L16.712 27.604ZM31.2169 22.0965V22.0978C30.8586 24.2555 29.0099 25.8216 26.8198 25.8216H21.9122L21.021 31.1687H17.9262L19.1133 24.0392H22.2792C22.5258 24.0392 22.7673 24.0201 23.0066 23.9925C25.5361 23.7007 27.6272 21.9103 28.2947 19.4506C28.3504 19.2465 28.3985 19.039 28.4337 18.826C28.4342 18.8227 28.4342 18.8192 28.4346 18.8162C28.4766 18.5666 28.5025 18.3153 28.5132 18.0629C28.5136 18.0564 28.5145 18.0501 28.5145 18.0434C28.5243 17.7934 28.5179 17.5434 28.4979 17.2949C28.4971 17.2827 28.4971 17.2708 28.4957 17.2588C28.4949 17.2507 28.4949 17.2427 28.4944 17.2342C29.222 17.5305 29.8695 18.0181 30.3573 18.653C31.1175 19.6427 31.4228 20.8653 31.2169 22.0965V22.0965Z" fill="#757575"/>
</g>
<defs>
<clipPath id="clip0">
<rect width="21.5625" height="21.5625" fill="white" transform="translate(11.5 11.5)"/>
</clipPath>
</defs>
</svg>
