<svg width="79" height="181" viewBox="0 0 79 181" fill="none" xmlns="http://www.w3.org/2000/svg">
<path d="M76.9853 71.3363C71.9484 88.7894 57.2415 101.007 41.9002 111.385C39.7582 112.835 37.6154 114.251 35.472 115.633C35.4575 115.64 35.4425 115.653 35.4278 115.66C35.3247 115.726 35.2214 115.792 35.1253 115.859C34.6829 116.144 34.2404 116.429 33.8017 116.71L34.0427 116.818C34.0427 116.818 34.2793 116.944 34.0204 116.839C33.9434 116.806 33.8626 116.777 33.7858 116.745C24.8735 113.155 15.8029 109.3 8.97291 102.574C1.88787 95.5899 -2.25261 84.6354 1.58388 75.4601C2.08815 74.2582 2.72512 73.1163 3.48294 72.0555C3.79414 71.6107 4.1293 71.185 4.47825 70.7672C6.59448 68.1874 9.36045 66.2171 12.4917 65.059C15.623 63.9009 19.0067 63.5967 22.2947 64.1778C25.5827 64.7588 28.6564 66.2041 31.1998 68.3651C33.7432 70.526 35.6645 73.3245 36.7661 76.473C37.8931 65.9913 29.2401 57.2113 20.9127 50.7329C12.5817 44.2578 3.11538 37.2064 1.50477 26.7828C0.605339 20.9833 2.62443 15.363 6.30247 10.8512C6.41633 10.7141 6.53006 10.5772 6.64734 10.4439C11.1246 5.18905 17.4218 1.81468 24.2811 0.994812C37.0556 -0.331297 49.4641 6.42262 58.7445 15.2942C73.6813 29.5679 82.7112 51.4922 76.9853 71.3363Z" fill="#3B3B3B"/>
<path d="M52.973 48.5081C55.4247 52.318 57.307 56.4647 58.5605 60.8172C59.6206 64.7075 60.0924 68.7342 59.9603 72.7638C59.6183 81.0557 57.2877 89.1444 53.1646 96.3493C50.0588 101.815 46.2737 106.867 41.8994 111.385C39.7573 112.835 37.6146 114.251 35.4712 115.633C35.4567 115.64 35.4417 115.653 35.427 115.66C35.3239 115.726 35.2206 115.792 35.1245 115.859C34.6821 116.144 34.2396 116.429 33.8009 116.71C33.8009 116.71 34.2785 116.944 34.0196 116.839C33.9426 116.806 33.8618 116.778 33.785 116.745C34.5837 110.204 33.8012 103.567 31.503 97.3898C29.2047 91.2129 25.4577 85.6762 20.576 81.2436C15.6824 76.8784 9.8253 73.7303 3.48218 72.0557C3.79337 71.6109 4.12853 71.1852 4.47748 70.7674C6.92732 71.4536 9.31162 72.3548 11.6025 73.4605C19.7918 77.3885 26.4973 83.8457 30.7264 91.8765C34.5215 99.1688 36.1549 107.391 35.4347 115.578C35.8009 115.247 36.1675 114.908 36.5231 114.573C43.2954 108.266 49.3106 101.027 53.3815 92.6728C56.9133 85.5979 58.6491 77.7641 58.4361 69.8613C58.1038 61.2442 54.6665 53.2625 49.6897 46.314C44.235 38.901 37.7912 32.2677 30.5372 26.5985C23.2268 20.75 15.2273 15.8171 6.71717 11.9097C6.52524 11.8202 6.37508 11.6604 6.29776 11.4635C6.22044 11.2665 6.22187 11.0474 6.30176 10.8515C6.35851 10.6756 6.48245 10.5293 6.64663 10.4442C6.7311 10.4078 6.82269 10.3909 6.9146 10.3948C7.00651 10.3987 7.09636 10.4233 7.17743 10.4667C8.22815 10.9498 9.27157 11.4396 10.3066 11.9506C18.9277 16.2067 26.986 21.5161 34.2964 27.7568C41.3578 33.77 48.0057 40.6402 52.973 48.5081Z" fill="#F0ECE9"/>
<path d="M4.27002 115.287H59.4664C60.0719 115.287 60.6705 115.416 61.2224 115.665C61.7743 115.913 62.2669 116.276 62.6676 116.73C63.0683 117.183 63.3679 117.716 63.5465 118.294C63.7251 118.872 63.7786 119.481 63.7035 120.081L56.6705 176.279C56.54 177.31 56.0378 178.258 55.2579 178.946C54.478 179.634 53.4738 180.014 52.4335 180.015H11.303C10.2626 180.014 9.25849 179.634 8.47857 178.946C7.69865 178.258 7.19644 177.31 7.06596 176.279L0.0329917 120.081C-0.0421292 119.481 0.0113829 118.872 0.189972 118.294C0.368561 117.716 0.668141 117.183 1.06884 116.73C1.46954 116.276 1.96218 115.913 2.51409 115.665C3.066 115.416 3.66456 115.287 4.27002 115.287Z" fill="#3B3B3B"/>
</svg>
