<svg width="193" height="224" viewBox="0 0 193 224" fill="none" xmlns="http://www.w3.org/2000/svg">
<g clip-path="url(#clip0)">
<path d="M192.59 173.525C190.928 182.837 184.119 190.288 177.603 197.186C169.283 205.991 161.459 214.703 153.14 223.513H46.4427C45.4235 223.513 44.0456 223.316 43.0593 223.597L41.4597 224.066C33.5367 218.278 27.4023 210.476 21.3763 202.743L10.4664 188.779C4.89819 181.646 -0.986194 173.403 0.368109 164.481C0.453753 163.527 0.799626 162.615 1.3685 161.842C1.9257 161.268 2.59107 160.808 3.32682 160.488C18.4271 152.873 35.4148 149.944 51.6948 145.197C54.2146 144.461 56.8855 143.59 58.589 141.617C60.8918 138.988 60.9484 135.169 61.6609 131.776C62.3735 128.383 63.9024 125.046 64.7565 121.607C65.7427 117.609 65.8182 113.457 65.8843 109.338C65.9598 104.908 66.0337 100.48 66.1061 96.0529C66.1784 91.626 66.2508 87.2288 66.3232 82.8613C83.7828 82.5239 101.016 81.1883 118.4 82.5333C120.179 82.6738 122.104 82.8847 123.397 84.0984C124.393 85.0357 124.813 86.404 125.176 87.7256C126.559 92.9647 127.187 98.3257 127.592 103.734C128.182 111.569 128.314 119.484 129.631 127.221C130.358 131.499 131.518 135.872 134.284 139.236C138.12 143.922 144.302 145.834 150.087 147.671C162.076 151.458 173.873 155.769 185.478 160.605C187.219 161.332 188.998 162.1 190.329 163.417C192.906 165.938 193.222 169.978 192.59 173.525Z" fill="#F0ECE9"/>
<path d="M127.592 103.705C124.072 107.506 117.098 109.765 113.139 111.92C109.179 114.076 105.116 116.25 100.671 116.696C95.4193 117.225 90.2664 115.29 85.3446 113.415C82.6974 112.394 80.0359 111.363 77.6388 109.854C72.4481 106.573 69.093 101.494 66.106 96.0435C66.1783 91.6479 66.2507 87.2507 66.323 82.8519C83.7827 82.5145 101.016 81.1789 118.4 82.5239C120.179 82.6644 122.104 82.8753 123.397 84.089C124.393 85.0263 124.813 86.3946 125.176 87.7162C126.578 92.9366 127.186 98.2976 127.592 103.705Z" fill="#929292"/>
<path d="M135.43 80.5229C136.685 79.5857 138.172 78.9577 139.385 77.9549C140.623 76.8421 141.642 75.5105 142.391 74.0279C144.538 70.1946 146.137 65.8786 145.793 61.5064C145.448 57.1341 142.801 52.7385 138.62 51.3279C141.249 43.2677 139.092 34.5279 136.893 26.3365C136.19 23.6982 135.477 21.0317 134.203 18.6089C131.65 13.7587 127.073 10.2956 122.406 7.40895C117.032 4.08644 111.213 1.26066 104.947 0.337484C98.4582 -0.599754 91.7953 0.529621 85.623 2.72744C82.3199 3.90837 79.0167 5.44544 76.5534 7.95724C74.7556 9.78954 73.4815 12.0623 71.896 14.0821C69.3289 17.3624 65.9313 19.982 63.8079 23.5529C61.4485 27.5127 60.9058 32.2364 60.4009 36.8101L58.721 51.9981C57.6074 50.4563 55.196 50.3157 53.5303 51.2858C51.8645 52.2558 50.9113 54.0413 50.2932 55.8361C49.4114 58.4454 49.1234 61.2165 49.4498 63.9498C49.7761 66.683 50.7089 69.3104 52.1807 71.6426C53.4878 73.6717 55.1819 75.4243 56.6777 77.3223C64.2845 86.9477 67.196 100.589 77.601 107.155C79.9982 108.664 82.6596 109.694 85.3069 110.716C90.2286 112.591 95.3816 114.545 100.634 113.996C105.098 113.528 109.165 111.358 113.101 109.216C117.919 106.597 127.219 103.813 129.3 98.2883C131.622 92.2712 129.409 85.0498 135.43 80.5229Z" fill="#F0ECE9"/>
<path d="M85.8072 84.4967C87.1568 83.5032 88.445 82.3926 89.9692 81.685C92.0768 80.7328 94.4747 80.632 96.6558 81.4038C97.0836 81.601 97.5442 81.7185 98.0148 81.7506C98.6182 81.6606 99.1983 81.4554 99.723 81.1461C101.813 80.2416 104.244 80.8977 106.329 81.8115C109.093 83.1091 111.749 84.6229 114.271 86.3384C113.265 86.6519 112.288 87.0501 111.35 87.5287C110.27 88.0816 109.241 88.7424 108.16 89.3C105.43 90.6311 102.472 91.4373 99.4399 91.676C98.6267 91.7641 97.8088 91.8032 96.9908 91.7931C93.6546 91.7275 90.4553 90.5325 87.3361 89.3516L84.5803 88.3206L83.2072 87.8052C82.9287 87.6974 82.0463 87.5334 81.8906 87.2944C81.565 86.8257 83.0561 86.2821 83.4808 86.0291C84.2877 85.5558 85.0522 85.0403 85.8072 84.4967Z" fill="#929292"/>
<path d="M112.893 47.3492C113.255 47.188 113.625 47.0472 114.002 46.9274C116.195 46.2398 118.558 46.3075 120.708 47.1198C122.858 47.932 124.668 49.4412 125.846 51.4028C125.502 51.4777 125.205 51.1872 124.94 50.9576C124.199 50.4112 123.384 49.9711 122.52 49.6501C121.949 49.383 121.397 49.0737 120.816 48.83C118.748 48.0331 116.481 47.9003 114.333 48.4505C112.27 48.9191 110.557 49.95 108.67 50.8451C108.67 50.1656 109.953 49.2331 110.454 48.8254C111.197 48.2273 112.017 47.7308 112.893 47.3492Z" fill="#929292"/>
<path d="M118.084 54.2425C120.132 54.3081 122.331 54.0832 123.926 52.8367C122.954 52.7429 122.005 53.085 121.057 53.3053C119.321 53.7129 117.514 53.7273 115.772 53.3475C114.903 53.1553 114.054 52.8788 113.172 52.7242C112.448 52.559 111.693 52.593 110.987 52.8226C111.213 53.474 113.625 53.7177 114.29 53.8395C115.543 54.0668 116.811 54.2015 118.084 54.2425Z" fill="#929292"/>
<path d="M82.6456 47.3492C82.2845 47.1872 81.9142 47.0464 81.5366 46.9274C79.3433 46.2398 76.9805 46.3075 74.8309 47.1198C72.6812 47.932 70.8706 49.4412 69.6924 51.4028C70.0369 51.4777 70.3341 51.1872 70.6031 50.9576C71.3429 50.4129 72.1562 49.9744 73.0191 49.6548C73.5901 49.3877 74.1422 49.0784 74.7226 48.8347C76.7923 48.0377 79.0614 47.905 81.211 48.4551C83.2684 48.9238 84.9861 49.9547 86.85 50.8498C86.85 50.1703 85.5618 49.2377 85.0616 48.83C84.3267 48.2311 83.5141 47.733 82.6456 47.3492Z" fill="#929292"/>
<path d="M77.4453 54.2426C75.4021 54.3082 73.1984 54.0833 71.6082 52.8367C72.5802 52.743 73.5287 53.0851 74.4772 53.3054C76.2118 53.7129 78.0166 53.7273 79.7576 53.3475C80.6306 53.1554 81.4799 52.8789 82.3576 52.7243C83.083 52.5594 83.8398 52.5934 84.5472 52.8227C84.3207 53.4741 81.9046 53.7177 81.244 53.8396C79.9895 54.0666 78.7198 54.2013 77.4453 54.2426Z" fill="#929292"/>
<path d="M91.3139 73.067C92.9714 73.067 94.3151 72.532 94.3151 71.872C94.3151 71.2121 92.9714 70.6771 91.3139 70.6771C89.6564 70.6771 88.3127 71.2121 88.3127 71.872C88.3127 72.532 89.6564 73.067 91.3139 73.067Z" fill="#929292"/>
<path d="M104.531 73.067C106.189 73.067 107.533 72.532 107.533 71.872C107.533 71.2121 106.189 70.6771 104.531 70.6771C102.874 70.6771 101.53 71.2121 101.53 71.872C101.53 72.532 102.874 73.067 104.531 73.067Z" fill="#929292"/>
<path d="M34.2161 159.251C38.0339 157.921 42.0573 157.268 46.1028 157.32C50.0572 157.372 53.9691 158.098 57.8999 158.506C64.1004 159.152 70.3481 159.007 76.5817 158.862" fill="#929292"/>
<path d="M152.923 159.251C149.105 157.921 145.082 157.268 141.036 157.32C137.082 157.372 133.17 158.098 129.239 158.506C123.039 159.152 116.791 159.007 110.562 158.862" fill="#929292"/>
<path d="M84.3774 180.868C85.9299 185.086 91.1631 186.829 93.4517 190.709C94.1709 192.069 94.6966 193.522 95.0137 195.025L96.2311 199.711C95.7592 197.401 95.2873 195.063 95.4195 192.71C95.5516 190.358 96.4104 187.954 98.1941 186.403C99.1757 185.635 100.259 185.004 101.412 184.528L108.646 181.121" fill="#929292"/>
</g>
<defs>
<clipPath id="clip0">
<rect width="193" height="224" fill="white"/>
</clipPath>
</defs>
</svg>
