<svg width="515" height="196" viewBox="0 0 515 196" fill="none" xmlns="http://www.w3.org/2000/svg">
<path d="M57.2974 195.344C60.9836 195.344 63.9718 192.605 63.9718 189.226C63.9718 185.847 60.9836 183.108 57.2974 183.108C53.6113 183.108 50.623 185.847 50.623 189.226C50.623 192.605 53.6113 195.344 57.2974 195.344Z" fill="#F0ECE9"/>
<path d="M453.866 195.344C457.245 195.344 459.984 192.605 459.984 189.226C459.984 185.847 457.245 183.108 453.866 183.108C450.487 183.108 447.748 185.847 447.748 189.226C447.748 192.605 450.487 195.344 453.866 195.344Z" fill="#F0ECE9"/>
<path d="M172.329 101.903H73.5279C68.9299 101.898 64.5217 100.082 61.2704 96.854C58.0191 93.6259 56.1902 89.2491 56.1851 84.6839V17.8945C56.1902 13.3292 58.0191 8.95246 61.2704 5.72435C64.5217 2.49624 68.9299 0.680443 73.5279 0.675293H172.329C176.927 0.680443 181.336 2.49624 184.587 5.72435C187.838 8.95246 189.667 13.3292 189.672 17.8945V84.6839C189.667 89.2492 187.838 93.626 184.587 96.8541C181.336 100.082 176.927 101.898 172.329 101.903Z" fill="#3B3B3B"/>
<path d="M304.704 101.903H205.903C201.305 101.898 196.896 100.082 193.645 96.854C190.394 93.6259 188.565 89.2491 188.56 84.6839V17.8945C188.565 13.3293 190.394 8.95248 193.645 5.72438C196.896 2.49627 201.305 0.680443 205.903 0.675293H304.704C309.302 0.680443 313.71 2.49627 316.962 5.72438C320.213 8.95248 322.042 13.3293 322.047 17.8945V84.6839C322.042 89.2492 320.213 93.6259 316.962 96.854C313.71 100.082 309.302 101.898 304.704 101.903Z" fill="#3B3B3B"/>
<path d="M437.079 103.016H338.277C333.679 103.01 329.271 101.195 326.02 97.9664C322.769 94.7383 320.94 90.3615 320.935 85.7963V19.0069C320.94 14.4417 322.769 10.0649 326.02 6.83678C329.271 3.60867 333.679 1.79287 338.277 1.78772H437.079C441.677 1.79287 446.085 3.60867 449.336 6.83678C452.588 10.0649 454.417 14.4417 454.422 19.0069V85.7964C454.417 90.3616 452.588 94.7384 449.336 97.9665C446.085 101.195 441.677 103.01 437.079 103.016Z" fill="#3B3B3B"/>
<path d="M474.445 97.4535H41.7239V188.67H474.445V97.4535Z" fill="#3B3B3B"/>
<path d="M57.2976 188.67H38.1451C28.4644 188.67 20.5886 179.921 20.5886 169.168V75.2057H57.2976V188.67Z" fill="#3B3B3B"/>
<path d="M472.462 188.67H453.31V59.6321H490.019V166.491C490.019 178.721 482.143 188.67 472.462 188.67Z" fill="#3B3B3B"/>
<path d="M189.672 116.364H57.2976V87.7994C101.423 62.1085 145.548 62.1085 189.672 87.7994V116.364Z" fill="#F0ECE9"/>
<path d="M454.422 116.364H322.047V87.7994C366.172 62.1085 410.297 62.1085 454.422 87.7994V116.364Z" fill="#F0ECE9"/>
<path d="M322.047 116.364H188.56V88.4637C233.056 63.3703 277.551 63.3703 322.047 88.4637V116.364Z" fill="#F0ECE9"/>
<path d="M31.7124 98.5659C48.9145 98.5659 62.8595 84.6209 62.8595 67.4189C62.8595 50.2168 48.9145 36.2719 31.7124 36.2719C14.5104 36.2719 0.56543 50.2168 0.56543 67.4189C0.56543 84.6209 14.5104 98.5659 31.7124 98.5659Z" fill="#3B3B3B"/>
<path d="M483.9 97.4535C500.795 97.4535 514.491 83.7575 514.491 66.8627C514.491 49.9678 500.795 36.2719 483.9 36.2719C467.006 36.2719 453.31 49.9678 453.31 66.8627C453.31 83.7575 467.006 97.4535 483.9 97.4535Z" fill="#3B3B3B"/>
</svg>
