<svg width="28" height="28" viewBox="0 0 28 28" fill="none" xmlns="http://www.w3.org/2000/svg">
<path d="M8.7955 26.2495C19.362 26.2495 25.1423 17.4943 25.1423 9.915C25.1423 9.67 25.1423 9.4215 25.1318 9.1765C26.2571 8.36185 27.2284 7.35327 28 6.198C26.9488 6.66149 25.8348 6.96696 24.6943 7.1045C25.8957 6.38637 26.7955 5.25645 27.2265 3.92475C26.0977 4.59347 24.8623 5.06291 23.5742 5.3125C22.7083 4.3903 21.5625 3.77936 20.3141 3.57433C19.0658 3.3693 17.7848 3.58162 16.6693 4.17839C15.5539 4.77517 14.6664 5.7231 14.1443 6.87536C13.6222 8.02761 13.4946 9.31989 13.7812 10.552C11.497 10.4375 9.26243 9.84407 7.22232 8.8103C5.18222 7.77654 3.3822 6.32548 1.939 4.55125C1.20635 5.81665 0.982754 7.31346 1.31363 8.73772C1.64451 10.162 2.50505 11.4069 3.7205 12.2198C2.80969 12.1888 1.91891 11.9442 1.12 11.5058V11.5845C1.12157 12.9101 1.58079 14.1945 2.42003 15.2206C3.25927 16.2467 4.42706 16.9515 5.726 17.216C5.23296 17.3518 4.72365 17.4195 4.21225 17.4173C3.85172 17.4183 3.49192 17.3849 3.13775 17.3175C3.50488 18.4586 4.21973 19.4563 5.18218 20.1708C6.14464 20.8854 7.30649 21.281 8.505 21.3023C6.46897 22.9014 3.95395 23.7687 1.365 23.7645C0.908811 23.7664 0.45294 23.7401 0 23.6858C2.62765 25.361 5.67927 26.2505 8.7955 26.2495Z" fill="#747474"/>
</svg>
