<svg width="46" height="46" viewBox="0 0 46 46" fill="none" xmlns="http://www.w3.org/2000/svg">
<path d="M6.53652 19.2776L7.90173 29.0583H11.2537L17.5036 16.9474H13.9813L11.3275 22.5643C10.9529 23.3619 10.6265 24.0828 10.3455 24.7441C10.2944 24.0544 10.2376 23.3846 10.1695 22.7006L9.63309 16.9502H4.27441L9.84596 21.3581L6.53652 19.2776Z" fill="#757575"/>
<path d="M19.9101 29.0611L22.2062 16.9502H19.0529L16.7539 29.0611H19.9101Z" fill="#757575"/>
<path d="M21.7581 28.3459C22.496 28.8994 23.796 29.2286 25.235 29.2286C28.218 29.2286 30.2218 27.5427 30.2218 25.0365C30.2218 23.6656 29.4215 22.5785 27.7781 21.7185C26.8585 21.2019 26.2993 20.8557 26.2993 20.4186C26.2993 20.0099 26.7279 19.5699 27.744 19.5699C28.7346 19.5699 29.4896 19.9588 29.6343 20.0354L29.9919 20.2313L30.9995 17.5349L30.7356 17.3873C29.9806 16.9701 29.044 16.7686 27.8718 16.7686C25.0164 16.7686 23.0211 18.4375 23.0211 20.8273C23.0211 22.5586 24.3835 23.5208 25.5813 24.1679C26.7052 24.7526 26.9266 25.0847 26.9266 25.4622C26.9266 26.1888 26.1432 26.4471 25.4706 26.4471C24.5935 26.4471 23.6796 26.2002 22.9615 25.7687L22.6067 25.5587L21.5396 28.187L21.7581 28.3459Z" fill="#757575"/>
<path d="M33.2643 29.0611L34.6181 26.1008H37.3486L37.587 29.0611H40.8623L39.4432 16.9502H35.779L29.8867 29.0611H33.2643ZM36.5567 21.5794C36.6816 21.307 36.8093 20.9948 36.9398 20.674C36.9626 20.9607 36.9824 21.2303 36.9994 21.4631L37.1839 23.5322H35.6513L36.5567 21.5794Z" fill="#757575"/>
</svg>
